<?xml version="1.0" standalone="no"?><!DOCTYPE svg PUBLIC "-//W3C//DTD SVG 1.1//EN" "http://www.w3.org/Graphics/SVG/1.1/DTD/svg11.dtd"><svg t="1651501617024" class="icon" viewBox="0 0 1024 1024" version="1.1" xmlns="http://www.w3.org/2000/svg" p-id="1160" xmlns:xlink="http://www.w3.org/1999/xlink" width="200" height="200"><defs><style type="text/css"></style></defs><path d="M752 624a64 64 0 0 1-64-64 16 16 0 0 0-16-16H224a16 16 0 0 0-16 16 64 64 0 0 1-64 64 16 16 0 0 0-16 16v160a16 16 0 0 0 16 16 64 64 0 0 1 64 64 16 16 0 0 0 16 16h448a16 16 0 0 0 16-16 64 64 0 0 1 64-64 16 16 0 0 0 16-16V640a16 16 0 0 0-16-16zM448 816c-34.72 0-64-44-64-96s29.28-96 64-96 64 44 64 96-29.28 96-64 96z" p-id="1161"></path><path d="M951.84 667.04l-32-56.16 5.28-9.12a48 48 0 0 0-17.6-65.6l-46.72-26.72L615.84 84.96a48 48 0 0 0-65.6-17.6l-228 131.52a46.24 46.24 0 0 0-33.6-3.52 47.04 47.04 0 0 0-29.28 22.4L107.84 480A48 48 0 0 0 64 528v384a48 48 0 0 0 48 48h672a48 48 0 0 0 48-48v-120.32l102.24-59.04a48 48 0 0 0 17.6-65.6z m-55.04-81.28l-9.6 16L832 697.92v-168l9.12 5.28 49.44 28.64a16 16 0 0 1 6.24 21.92zM566.24 96a16 16 0 0 1 21.76 5.76l217.28 375.68-54.88-32-133.92-231.36a16 16 0 0 0-21.92-6.08 64 64 0 0 1-87.36-23.36 16.96 16.96 0 0 0-9.76-7.52 16 16 0 0 0-12.16 1.6l-98.56 56.96-32-18.56zM288 233.76a16 16 0 0 1 9.76-7.52 16 16 0 0 1 12 1.76l5.6 3.2 64 36.64h0.8l352 202.72 14.88 8.48h-64L390.08 311.52a16 16 0 0 0-19.2 2.56 6.88 6.88 0 0 0-1.44 1.6v1.76a70.08 70.08 0 0 1-4.48 6.72 56.32 56.32 0 0 1-4.96 5.6 28.96 28.96 0 0 1-5.28 4.64 42.24 42.24 0 0 1-7.52 5.28 64 64 0 0 1-64.8 0 16 16 0 0 0-21.92 5.92L181.92 480H144.96zM800 912a16 16 0 0 1-16 16H112a16 16 0 0 1-16-16V528a16 16 0 0 1 16-16h672a16 16 0 0 1 16 16v384z m125.76-216.96a16 16 0 0 1-7.52 9.76l-80 46.08 61.44-106.24 0.96-1.76 23.36 40.32a16 16 0 0 1 1.76 11.84z" p-id="1162"></path></svg>